<?xml version="1.0" encoding="utf-8"?>
<!-- Generator: Adobe Illustrator 27.8.1, SVG Export Plug-In . SVG Version: 6.00 Build 0)  -->
<svg version="1.1" id="Ebene_1" xmlns="http://www.w3.org/2000/svg" xmlns:xlink="http://www.w3.org/1999/xlink" x="0px" y="0px"
	 viewBox="0 0 841.9 595.3" style="enable-background:new 0 0 841.9 595.3;" xml:space="preserve">
<style type="text/css">
	.st0{fill:#FFFFFF;}
</style>
<g>
	<g>
		<path class="st0" d="M383.7,386.6h-8.1v-23.4c0-2.9-0.5-5.1-1.6-6.5c-1.1-1.4-2.8-2.1-5.1-2.1c-3.1,0-5.4,1-6.8,3
			c-1.5,2-2.2,5.4-2.2,10.1v18.9h-8.1v-38h6.3l1.1,5h0.4c1.1-1.8,2.6-3.2,4.6-4.2c2-1,4.2-1.5,6.6-1.5c5.8,0,9.7,2,11.6,6h0.5
			c1.1-1.9,2.7-3.3,4.7-4.4c2-1.1,4.4-1.6,7-1.6c4.5,0,7.8,1.1,9.9,3.4c2.1,2.3,3.1,5.8,3.1,10.5v24.7h-8.1v-23.4
			c0-2.9-0.6-5.1-1.7-6.5s-2.8-2.1-5.2-2.1c-3.1,0-5.4,1-6.9,2.9c-1.5,2-2.2,5-2.2,9V386.6z"/>
		<path class="st0" d="M435.5,387.2c-5.9,0-10.5-1.7-13.8-5.2c-3.3-3.4-5-8.2-5-14.2c0-6.2,1.5-11.1,4.6-14.6
			c3.1-3.5,7.3-5.3,12.7-5.3c5,0,9,1.5,11.9,4.6c2.9,3,4.4,7.2,4.4,12.6v4.4H425c0.1,3.7,1.1,6.5,3,8.5c1.9,2,4.5,3,7.9,3
			c2.2,0,4.3-0.2,6.3-0.6c1.9-0.4,4-1.1,6.2-2.1v6.6c-2,0.9-4,1.6-6,2S438.1,387.2,435.5,387.2z M434,354c-2.6,0-4.6,0.8-6.2,2.4
			c-1.5,1.6-2.5,4-2.8,7.1h17.2c0-3.1-0.8-5.5-2.3-7.1C438.6,354.8,436.6,354,434,354z"/>
		<path class="st0" d="M473.5,380.7c2,0,3.9-0.3,5.9-0.9v6.1c-0.9,0.4-2,0.7-3.4,1c-1.4,0.3-2.9,0.4-4.4,0.4
			c-7.6,0-11.5-4-11.5-12.1v-20.5H455v-3.6l5.6-3l2.7-8h5v8.4h10.8v6.1h-10.8V375c0,1.9,0.5,3.4,1.5,4.3S472,380.7,473.5,380.7z"/>
		<path class="st0" d="M510.8,386.6l-1.6-5.3h-0.3c-1.8,2.3-3.7,3.9-5.5,4.7s-4.2,1.3-7.1,1.3c-3.7,0-6.6-1-8.7-3
			c-2.1-2-3.1-4.9-3.1-8.5c0-3.9,1.5-6.9,4.4-8.9c2.9-2,7.3-3.1,13.3-3.3l6.6-0.2v-2c0-2.4-0.6-4.2-1.7-5.4
			c-1.1-1.2-2.9-1.8-5.3-1.8c-1.9,0-3.8,0.3-5.6,0.9s-3.5,1.2-5.1,2l-2.6-5.8c2.1-1.1,4.3-1.9,6.8-2.5c2.4-0.6,4.8-0.8,6.9-0.8
			c4.8,0,8.5,1.1,10.9,3.2c2.5,2.1,3.7,5.4,3.7,9.9v25.6H510.8z M498.8,381.1c2.9,0,5.3-0.8,7.1-2.5c1.8-1.6,2.7-3.9,2.7-6.9v-3.3
			l-4.9,0.2c-3.8,0.1-6.6,0.8-8.3,1.9c-1.7,1.1-2.6,2.9-2.6,5.2c0,1.7,0.5,3,1.5,3.9S496.8,381.1,498.8,381.1z"/>
		<path class="st0" d="M340.4,448.7c-4.7,0-8.4-1.7-11.1-5.1c-2.7-3.4-4-8.2-4-14.4c0-6.2,1.3-11.1,4-14.5s6.4-5.2,11.2-5.2
			c5,0,8.8,1.8,11.4,5.5h0.4c-0.4-2.7-0.6-4.9-0.6-6.5v-13.8h8.1v53.4h-6.3l-1.4-5h-0.4C349.2,446.9,345.4,448.7,340.4,448.7z
			 M342.6,442.2c3.3,0,5.7-0.9,7.2-2.8c1.5-1.9,2.3-4.9,2.3-9.1v-1.1c0-4.8-0.8-8.2-2.3-10.2s-4-3-7.3-3c-2.8,0-5,1.1-6.6,3.4
			c-1.5,2.3-2.3,5.6-2.3,9.8c0,4.2,0.7,7.4,2.2,9.6S339.6,442.2,342.6,442.2z"/>
		<path class="st0" d="M395.7,448.1l-1.6-5.3h-0.3c-1.8,2.3-3.7,3.9-5.5,4.7s-4.2,1.3-7.1,1.3c-3.7,0-6.6-1-8.7-3
			c-2.1-2-3.1-4.9-3.1-8.5c0-3.9,1.5-6.9,4.4-8.9c2.9-2,7.3-3.1,13.3-3.3l6.6-0.2v-2c0-2.4-0.6-4.2-1.7-5.4
			c-1.1-1.2-2.9-1.8-5.3-1.8c-1.9,0-3.8,0.3-5.6,0.9c-1.8,0.6-3.5,1.2-5.1,2l-2.6-5.8c2.1-1.1,4.3-1.9,6.8-2.5
			c2.4-0.6,4.8-0.8,6.9-0.8c4.8,0,8.5,1.1,10.9,3.2s3.7,5.4,3.7,9.9v25.6H395.7z M383.7,442.6c2.9,0,5.3-0.8,7.1-2.5
			s2.7-3.9,2.7-6.9v-3.3l-4.9,0.2c-3.8,0.1-6.6,0.8-8.3,1.9c-1.7,1.1-2.6,2.9-2.6,5.2c0,1.7,0.5,3,1.5,3.9S381.7,442.6,383.7,442.6z
			"/>
		<path class="st0" d="M428.2,442.2c2,0,3.9-0.3,5.9-0.9v6.1c-0.9,0.4-2,0.7-3.4,1c-1.4,0.3-2.9,0.4-4.4,0.4
			c-7.6,0-11.5-4-11.5-12.1v-20.5h-5.2v-3.6l5.6-3l2.7-8h5v8.4h10.8v6.1h-10.8v20.3c0,1.9,0.5,3.4,1.5,4.3S426.6,442.2,428.2,442.2z
			"/>
		<path class="st0" d="M459.1,448.7c-5.9,0-10.5-1.7-13.8-5.2c-3.3-3.4-5-8.2-5-14.2c0-6.2,1.5-11.1,4.6-14.6
			c3.1-3.5,7.3-5.3,12.7-5.3c5,0,9,1.5,11.9,4.6c2.9,3,4.4,7.2,4.4,12.6v4.4h-25.3c0.1,3.7,1.1,6.5,3,8.5c1.9,2,4.5,3,7.9,3
			c2.2,0,4.3-0.2,6.3-0.6c1.9-0.4,4-1.1,6.2-2.1v6.6c-2,0.9-4,1.6-6,2C464,448.5,461.7,448.7,459.1,448.7z M457.6,415.5
			c-2.6,0-4.6,0.8-6.2,2.4c-1.5,1.6-2.5,4-2.8,7.1H466c0-3.1-0.8-5.5-2.3-7.1C462.2,416.3,460.2,415.5,457.6,415.5z"/>
		<path class="st0" d="M516.5,448.1h-8.1v-23.3c0-2.9-0.6-5.1-1.8-6.6c-1.2-1.4-3-2.2-5.6-2.2c-3.4,0-5.9,1-7.5,3s-2.4,5.4-2.4,10.1
			v18.9h-8.1v-38h6.3l1.1,5h0.4c1.1-1.8,2.8-3.2,4.9-4.2c2.1-1,4.4-1.5,7-1.5c9.1,0,13.7,4.6,13.7,13.9V448.1z"/>
		<path class="st0" d="M386.3,506.9c0-2.2,0.9-3.4,2.7-3.4c1.9,0,2.8,1.1,2.8,3.4c0,2.2-0.9,3.4-2.8,3.4
			C387.2,510.2,386.3,509.1,386.3,506.9z"/>
		<path class="st0" d="M429.7,509.5v-24.2c0-3.8-0.8-6.5-2.4-8.2c-1.6-1.7-4-2.6-7.3-2.6c-4.5,0-7.7,1.1-9.8,3.4
			c-2.1,2.3-3.1,5.9-3.1,11v20.6h-3.4v-37.3h2.9l0.7,5.1h0.2c2.4-3.9,6.7-5.8,12.9-5.8c8.5,0,12.7,4.5,12.7,13.6v24.4H429.7z"/>
		<path class="st0" d="M459.8,471.5c1.6,0,3.3,0.2,5.1,0.5l-0.7,3.3c-1.6-0.4-3.2-0.6-4.8-0.6c-3.2,0-5.8,1.4-7.8,4
			c-2,2.7-3.1,6.1-3.1,10.2v20.6h-3.4v-37.3h2.9l0.3,6.7h0.2c1.5-2.7,3.2-4.7,4.9-5.8C455.2,472.1,457.3,471.5,459.8,471.5z"/>
		<path class="st0" d="M502.9,509.5l-8.2-24.9c-0.5-1.7-1.2-4.2-2-7.4h-0.2l-0.7,2.5l-1.5,5l-8.3,24.9h-3.4l-10.7-37.3h3.6l6,21.6
			c1.4,5.4,2.3,9.3,2.7,11.8h0.2c1.4-5.4,2.3-8.9,3-10.7l7.7-22.8h3.1l7.3,22.7c1.6,5.4,2.7,8.9,3,10.7h0.2
			c0.2-1.5,1.1-5.5,2.7-11.9l5.7-21.4h3.4l-10.1,37.3H502.9z"/>
	</g>
	<path class="st0" d="M307.6,149.8c0-3.6,2.9-6.5,6.5-6.5c3.6,0,6.5,2.9,6.5,6.5c0,3.6-2.9,6.5-6.5,6.5
		C310.5,156.3,307.6,153.4,307.6,149.8z M314,234.1c3.6,0,6.5-2.9,6.5-6.5c0-3.6-2.9-6.5-6.5-6.5c-3.6,0-6.5,2.9-6.5,6.5
		C307.6,231.2,310.5,234.1,314,234.1z M314,253.5c3.6,0,6.5-2.9,6.5-6.5s-2.9-6.5-6.5-6.5c-3.6,0-6.5,2.9-6.5,6.5
		S310.5,253.5,314,253.5z M327,149.8c0-3.6,2.9-6.5,6.5-6.5c3.6,0,6.5,2.9,6.5,6.5c0,1.2-0.4,2.3-0.9,3.3l10.6,10.6
		c1-0.6,2.1-0.9,3.3-0.9c3.6,0,6.5,2.9,6.5,6.5s-2.9,6.5-6.5,6.5c-3.6,0-6.5-2.9-6.5-6.5c0-1.1,0.3-2.2,0.8-3.1l-10.7-10.7
		c-0.9,0.5-2,0.8-3.1,0.8C329.9,156.3,327,153.4,327,149.8z M349.9,169.3c0,1.7,1.4,3.1,3.1,3.1s3.1-1.4,3.1-3.1
		c0-1.7-1.4-3.1-3.1-3.1S349.9,167.6,349.9,169.3z M330.4,149.8c0,1.7,1.4,3.1,3.1,3.1c1.7,0,3.1-1.4,3.1-3.1c0-1.7-1.4-3.1-3.1-3.1
		C331.8,146.8,330.4,148.1,330.4,149.8z M333.5,175.7c3.6,0,6.5-2.9,6.5-6.5s-2.9-6.5-6.5-6.5c-3.6,0-6.5,2.9-6.5,6.5
		S329.9,175.7,333.5,175.7z M333.5,214.6c3.6,0,6.5-2.9,6.5-6.5s-2.9-6.5-6.5-6.5c-3.6,0-6.5,2.9-6.5,6.5S329.9,214.6,333.5,214.6z
		 M333.5,260c-3.6,0-6.5,2.9-6.5,6.5c0,3.6,2.9,6.5,6.5,6.5c3.6,0,6.5-2.9,6.5-6.5C340,262.9,337.1,260,333.5,260z M352.9,156.3
		c3.6,0,6.5-2.9,6.5-6.5c0-3.6-2.9-6.5-6.5-6.5c-3.6,0-6.5,2.9-6.5,6.5C346.4,153.4,349.3,156.3,352.9,156.3z M352.9,182.2
		c-3.6,0-6.5,2.9-6.5,6.5c0,3.6,2.9,6.5,6.5,6.5c3.6,0,6.5-2.9,6.5-6.5C359.4,185.1,356.5,182.2,352.9,182.2z M359.4,227.6
		c0,3.6-2.9,6.5-6.5,6.5c-3.6,0-6.5-2.9-6.5-6.5c0-3.6,2.9-6.5,6.5-6.5C356.5,221.1,359.4,224,359.4,227.6z M356,227.6
		c0-1.7-1.4-3.1-3.1-3.1s-3.1,1.4-3.1,3.1c0,1.7,1.4,3.1,3.1,3.1S356,229.3,356,227.6z M352.9,240.5c-3.6,0-6.5,2.9-6.5,6.5
		s2.9,6.5,6.5,6.5c3.6,0,6.5-2.9,6.5-6.5S356.5,240.5,352.9,240.5z M352.9,260c-3.6,0-6.5,2.9-6.5,6.5c0,3.6,2.9,6.5,6.5,6.5
		c3.6,0,6.5-2.9,6.5-6.5C359.4,262.9,356.5,260,352.9,260z M372.4,136.9c3.6,0,6.5-2.9,6.5-6.5s-2.9-6.5-6.5-6.5
		c-3.6,0-6.5,2.9-6.5,6.5S368.8,136.9,372.4,136.9z M372.4,156.3c3.6,0,6.5-2.9,6.5-6.5c0-3.6-2.9-6.5-6.5-6.5
		c-3.6,0-6.5,2.9-6.5,6.5C365.9,153.4,368.8,156.3,372.4,156.3z M372.4,175.7c3.6,0,6.5-2.9,6.5-6.5s-2.9-6.5-6.5-6.5
		c-3.6,0-6.5,2.9-6.5,6.5S368.8,175.7,372.4,175.7z M370.6,201.9v-7c-2.7-0.8-4.8-3.2-4.8-6.2c0-3.6,2.9-6.5,6.5-6.5
		c3.6,0,6.5,2.9,6.5,6.5c0,3-2,5.5-4.8,6.2v7c2.7,0.8,4.8,3.2,4.8,6.2c0,3.6-2.9,6.5-6.5,6.5c-3.6,0-6.5-2.9-6.5-6.5
		C365.9,205.2,367.9,202.7,370.6,201.9z M372.4,205.1c-1.7,0-3.1,1.4-3.1,3.1c0,1.7,1.4,3.1,3.1,3.1c1.7,0,3.1-1.4,3.1-3.1
		C375.4,206.5,374,205.1,372.4,205.1z M372.4,191.8c1.7,0,3.1-1.4,3.1-3.1c0-1.7-1.4-3.1-3.1-3.1c-1.7,0-3.1,1.4-3.1,3.1
		C369.3,190.4,370.7,191.8,372.4,191.8z M372.4,234.1c3.6,0,6.5-2.9,6.5-6.5c0-3.6-2.9-6.5-6.5-6.5c-3.6,0-6.5,2.9-6.5,6.5
		C365.9,231.2,368.8,234.1,372.4,234.1z M391.8,117.4c3.6,0,6.5-2.9,6.5-6.5c0-3.6-2.9-6.5-6.5-6.5c-3.6,0-6.5,2.9-6.5,6.5
		C385.3,114.5,388.2,117.4,391.8,117.4z M391.8,136.9c3.6,0,6.5-2.9,6.5-6.5s-2.9-6.5-6.5-6.5c-3.6,0-6.5,2.9-6.5,6.5
		S388.2,136.9,391.8,136.9z M391.8,221.1c-3.6,0-6.5,2.9-6.5,6.5c0,3.6,2.9,6.5,6.5,6.5c3.6,0,6.5-2.9,6.5-6.5
		C398.3,224,395.4,221.1,391.8,221.1z M398.3,247c0,3.6-2.9,6.5-6.5,6.5c-3.6,0-6.5-2.9-6.5-6.5c0-3.6,2.9-6.5,6.5-6.5
		C395.4,240.5,398.3,243.4,398.3,247z M394.8,247c0-1.7-1.4-3.1-3.1-3.1s-3.1,1.4-3.1,3.1s1.4,3.1,3.1,3.1S394.8,248.7,394.8,247z
		 M411.2,136.9c3.6,0,6.5-2.9,6.5-6.5s-2.9-6.5-6.5-6.5c-3.6,0-6.5,2.9-6.5,6.5S407.6,136.9,411.2,136.9z M417.7,208.1
		c0,3.6-2.9,6.5-6.5,6.5c-3.6,0-6.5-2.9-6.5-6.5c0-3.6,2.9-6.5,6.5-6.5C414.8,201.7,417.7,204.6,417.7,208.1z M414.3,208.1
		c0-1.7-1.4-3.1-3.1-3.1s-3.1,1.4-3.1,3.1c0,1.7,1.4,3.1,3.1,3.1S414.3,209.8,414.3,208.1z M411.2,221.1c-3.6,0-6.5,2.9-6.5,6.5
		c0,3.6,2.9,6.5,6.5,6.5c3.6,0,6.5-2.9,6.5-6.5C417.7,224,414.8,221.1,411.2,221.1z M411.2,240.5c-3.6,0-6.5,2.9-6.5,6.5
		s2.9,6.5,6.5,6.5c3.6,0,6.5-2.9,6.5-6.5S414.8,240.5,411.2,240.5z M411.2,260c-3.6,0-6.5,2.9-6.5,6.5c0,3.6,2.9,6.5,6.5,6.5
		c3.6,0,6.5-2.9,6.5-6.5C417.7,262.9,414.8,260,411.2,260z M430.7,85c-3.6,0-6.5,2.9-6.5,6.5c0,3.6,2.9,6.5,6.5,6.5
		c3.6,0,6.5-2.9,6.5-6.5C437.1,87.9,434.2,85,430.7,85z M430.7,104.5c-3.6,0-6.5,2.9-6.5,6.5c0,3.6,2.9,6.5,6.5,6.5
		c3.6,0,6.5-2.9,6.5-6.5C437.1,107.4,434.2,104.5,430.7,104.5z M430.7,143.4c-3.6,0-6.5,2.9-6.5,6.5c0,3.6,2.9,6.5,6.5,6.5
		c3.6,0,6.5-2.9,6.5-6.5C437.1,146.3,434.2,143.4,430.7,143.4z M430.7,182.2c-3.6,0-6.5,2.9-6.5,6.5c0,3.6,2.9,6.5,6.5,6.5
		c3.6,0,6.5-2.9,6.5-6.5C437.1,185.1,434.2,182.2,430.7,182.2z M430.7,201.7c-3.6,0-6.5,2.9-6.5,6.5s2.9,6.5,6.5,6.5
		c3.6,0,6.5-2.9,6.5-6.5S434.2,201.7,430.7,201.7z M430.7,221.1c-3.6,0-6.5,2.9-6.5,6.5c0,3.6,2.9,6.5,6.5,6.5
		c3.6,0,6.5-2.9,6.5-6.5C437.1,224,434.2,221.1,430.7,221.1z M430.7,240.5c-3.6,0-6.5,2.9-6.5,6.5s2.9,6.5,6.5,6.5
		c3.6,0,6.5-2.9,6.5-6.5S434.2,240.5,430.7,240.5z M450.1,123.9c-3.6,0-6.5,2.9-6.5,6.5s2.9,6.5,6.5,6.5c3.6,0,6.5-2.9,6.5-6.5
		S453.7,123.9,450.1,123.9z M450.1,162.8c-3.6,0-6.5,2.9-6.5,6.5s2.9,6.5,6.5,6.5c3.6,0,6.5-2.9,6.5-6.5S453.7,162.8,450.1,162.8z
		 M450.1,182.2c-3.6,0-6.5,2.9-6.5,6.5c0,3.6,2.9,6.5,6.5,6.5c3.6,0,6.5-2.9,6.5-6.5C456.6,185.1,453.7,182.2,450.1,182.2z
		 M450.1,201.7c-3.6,0-6.5,2.9-6.5,6.5s2.9,6.5,6.5,6.5c3.6,0,6.5-2.9,6.5-6.5S453.7,201.7,450.1,201.7z M450.1,221.1
		c-3.6,0-6.5,2.9-6.5,6.5c0,3.6,2.9,6.5,6.5,6.5c3.6,0,6.5-2.9,6.5-6.5C456.6,224,453.7,221.1,450.1,221.1z M456.6,247
		c0,3.6-2.9,6.5-6.5,6.5c-3.6,0-6.5-2.9-6.5-6.5c0-3.6,2.9-6.5,6.5-6.5C453.7,240.5,456.6,243.4,456.6,247z M453.2,247
		c0-1.7-1.4-3.1-3.1-3.1s-3.1,1.4-3.1,3.1s1.4,3.1,3.1,3.1S453.2,248.7,453.2,247z M450.1,260c-3.6,0-6.5,2.9-6.5,6.5
		c0,3.6,2.9,6.5,6.5,6.5c3.6,0,6.5-2.9,6.5-6.5C456.6,262.9,453.7,260,450.1,260z M469.5,98c3.6,0,6.5-2.9,6.5-6.5
		c0-3.6-2.9-6.5-6.5-6.5c-3.6,0-6.5,2.9-6.5,6.5C463.1,95.1,466,98,469.5,98z M469.5,136.9c3.6,0,6.5-2.9,6.5-6.5s-2.9-6.5-6.5-6.5
		c-3.6,0-6.5,2.9-6.5,6.5S466,136.9,469.5,136.9z M469.5,162.8c-3.6,0-6.5,2.9-6.5,6.5s2.9,6.5,6.5,6.5c3.6,0,6.5-2.9,6.5-6.5
		S473.1,162.8,469.5,162.8z M469.5,182.2c-3.6,0-6.5,2.9-6.5,6.5c0,3.6,2.9,6.5,6.5,6.5c3.6,0,6.5-2.9,6.5-6.5
		C476,185.1,473.1,182.2,469.5,182.2z M476,208.1c0,3.6-2.9,6.5-6.5,6.5c-3.6,0-6.5-2.9-6.5-6.5c0-3.6,2.9-6.5,6.5-6.5
		C473.1,201.7,476,204.6,476,208.1z M472.6,208.1c0-1.7-1.4-3.1-3.1-3.1c-1.7,0-3.1,1.4-3.1,3.1c0,1.7,1.4,3.1,3.1,3.1
		C471.2,211.2,472.6,209.8,472.6,208.1z M469.5,221.1c-3.6,0-6.5,2.9-6.5,6.5c0,3.6,2.9,6.5,6.5,6.5c3.6,0,6.5-2.9,6.5-6.5
		C476,224,473.1,221.1,469.5,221.1z M469.5,240.5c-3.6,0-6.5,2.9-6.5,6.5s2.9,6.5,6.5,6.5c3.6,0,6.5-2.9,6.5-6.5
		S473.1,240.5,469.5,240.5z M489,98c3.6,0,6.5-2.9,6.5-6.5c0-3.6-2.9-6.5-6.5-6.5c-3.6,0-6.5,2.9-6.5,6.5
		C482.5,95.1,485.4,98,489,98z M489,117.4c3.6,0,6.5-2.9,6.5-6.5c0-3.6-2.9-6.5-6.5-6.5c-3.6,0-6.5,2.9-6.5,6.5
		C482.5,114.5,485.4,117.4,489,117.4z M482.5,130.4c0-3.6,2.9-6.5,6.5-6.5c3.6,0,6.5,2.9,6.5,6.5s-2.9,6.5-6.5,6.5
		C485.4,136.9,482.5,134,482.5,130.4z M485.9,130.4c0,1.7,1.4,3.1,3.1,3.1s3.1-1.4,3.1-3.1c0-1.7-1.4-3.1-3.1-3.1
		S485.9,128.7,485.9,130.4z M489,156.3c3.6,0,6.5-2.9,6.5-6.5c0-3.6-2.9-6.5-6.5-6.5c-3.6,0-6.5,2.9-6.5,6.5
		C482.5,153.4,485.4,156.3,489,156.3z M489,182.2c-3.6,0-6.5,2.9-6.5,6.5c0,3.6,2.9,6.5,6.5,6.5c3.6,0,6.5-2.9,6.5-6.5
		C495.5,185.1,492.6,182.2,489,182.2z M489,201.7c-3.6,0-6.5,2.9-6.5,6.5s2.9,6.5,6.5,6.5c3.6,0,6.5-2.9,6.5-6.5
		S492.6,201.7,489,201.7z M489,221.1c-3.6,0-6.5,2.9-6.5,6.5c0,3.6,2.9,6.5,6.5,6.5c3.6,0,6.5-2.9,6.5-6.5
		C495.5,224,492.6,221.1,489,221.1z M508.4,85c-3.6,0-6.5,2.9-6.5,6.5c0,3.6,2.9,6.5,6.5,6.5c3.6,0,6.5-2.9,6.5-6.5
		C514.9,87.9,512,85,508.4,85z M508.4,104.5c-3.6,0-6.5,2.9-6.5,6.5c0,3.6,2.9,6.5,6.5,6.5c3.6,0,6.5-2.9,6.5-6.5
		C514.9,107.4,512,104.5,508.4,104.5z M510.1,136.6v7c2.7,0.8,4.8,3.2,4.8,6.2c0,3.6-2.9,6.5-6.5,6.5c-1.2,0-2.3-0.4-3.3-0.9
		L494.5,166c0.6,1,0.9,2.1,0.9,3.3c0,3.6-2.9,6.5-6.5,6.5c-3.6,0-6.5-2.9-6.5-6.5c0-1.1,0.3-2.2,0.8-3.1l-10.7-10.7
		c-0.9,0.5-2,0.8-3.1,0.8c-3.6,0-6.5-2.9-6.5-6.5c0-3.6,2.9-6.5,6.5-6.5c3.6,0,6.5,2.9,6.5,6.5c0,1.2-0.4,2.3-0.9,3.3l10.6,10.6
		c1-0.6,2.1-0.9,3.3-0.9c1.1,0,2.2,0.3,3.1,0.8l10.7-10.7c-0.5-0.9-0.8-2-0.8-3.1c0-3,2-5.5,4.8-6.2v-7c-2.7-0.8-4.8-3.2-4.8-6.2
		c0-3.6,2.9-6.5,6.5-6.5c3.6,0,6.5,2.9,6.5,6.5C514.9,133.4,512.9,135.9,510.1,136.6z M508.4,133.4c1.7,0,3.1-1.4,3.1-3.1
		c0-1.7-1.4-3.1-3.1-3.1c-1.7,0-3.1,1.4-3.1,3.1C505.4,132.1,506.7,133.4,508.4,133.4z M469.5,152.9c1.7,0,3.1-1.4,3.1-3.1
		c0-1.7-1.4-3.1-3.1-3.1c-1.7,0-3.1,1.4-3.1,3.1C466.5,151.5,467.9,152.9,469.5,152.9z M492,169.3c0-1.7-1.4-3.1-3.1-3.1
		s-3.1,1.4-3.1,3.1c0,1.7,1.4,3.1,3.1,3.1S492,171,492,169.3z M508.4,146.8c-1.7,0-3.1,1.4-3.1,3.1c0,1.7,1.4,3.1,3.1,3.1
		c1.7,0,3.1-1.4,3.1-3.1C511.5,148.1,510.1,146.8,508.4,146.8z M508.4,162.8c-3.6,0-6.5,2.9-6.5,6.5s2.9,6.5,6.5,6.5
		c3.6,0,6.5-2.9,6.5-6.5S512,162.8,508.4,162.8z M508.4,182.2c-3.6,0-6.5,2.9-6.5,6.5c0,3.6,2.9,6.5,6.5,6.5c3.6,0,6.5-2.9,6.5-6.5
		C514.9,185.1,512,182.2,508.4,182.2z M527.9,156.3c3.6,0,6.5-2.9,6.5-6.5c0-3.6-2.9-6.5-6.5-6.5c-3.6,0-6.5,2.9-6.5,6.5
		C521.4,153.4,524.3,156.3,527.9,156.3z M534.3,169.3c0,3.6-2.9,6.5-6.5,6.5c-3.6,0-6.5-2.9-6.5-6.5s2.9-6.5,6.5-6.5
		C531.4,162.8,534.3,165.7,534.3,169.3z M530.9,169.3c0-1.7-1.4-3.1-3.1-3.1c-1.7,0-3.1,1.4-3.1,3.1c0,1.7,1.4,3.1,3.1,3.1
		C529.5,172.3,530.9,171,530.9,169.3z M527.9,182.2c-3.6,0-6.5,2.9-6.5,6.5c0,3.6,2.9,6.5,6.5,6.5c3.6,0,6.5-2.9,6.5-6.5
		C534.3,185.1,531.4,182.2,527.9,182.2z M333.5,279.4c-3.6,0-6.5,2.9-6.5,6.5c0,3.6,2.9,6.5,6.5,6.5c3.6,0,6.5-2.9,6.5-6.5
		C340,282.3,337.1,279.4,333.5,279.4z M333.5,298.9c-3.6,0-6.5,2.9-6.5,6.5c0,3.6,2.9,6.5,6.5,6.5c3.6,0,6.5-2.9,6.5-6.5
		C340,301.8,337.1,298.9,333.5,298.9z M352.9,298.9c-3.6,0-6.5,2.9-6.5,6.5c0,3.6,2.9,6.5,6.5,6.5c3.6,0,6.5-2.9,6.5-6.5
		C359.4,301.8,356.5,298.9,352.9,298.9z M372.4,279.4c-3.6,0-6.5,2.9-6.5,6.5c0,3.6,2.9,6.5,6.5,6.5c3.6,0,6.5-2.9,6.5-6.5
		C378.8,282.3,375.9,279.4,372.4,279.4z M333.5,195.2c3.6,0,6.5-2.9,6.5-6.5c0-3.6-2.9-6.5-6.5-6.5c-3.6,0-6.5,2.9-6.5,6.5
		C327,192.3,329.9,195.2,333.5,195.2z M391.8,156.3c3.6,0,6.5-2.9,6.5-6.5c0-3.6-2.9-6.5-6.5-6.5c-3.6,0-6.5,2.9-6.5,6.5
		C385.3,153.4,388.2,156.3,391.8,156.3z M450.1,143.4c-3.6,0-6.5,2.9-6.5,6.5c0,3.6,2.9,6.5,6.5,6.5c3.6,0,6.5-2.9,6.5-6.5
		C456.6,146.3,453.7,143.4,450.1,143.4z M437.1,169.3c0,3.6-2.9,6.5-6.5,6.5c-3,0-5.5-2-6.2-4.8h-7c-0.6,2.2-2.3,3.9-4.5,4.5v7
		c2.7,0.8,4.8,3.2,4.8,6.2c0,3.6-2.9,6.5-6.5,6.5c-1.2,0-2.3-0.4-3.3-0.9l-10.6,10.6c0.6,1,0.9,2.1,0.9,3.3c0,3.6-2.9,6.5-6.5,6.5
		c-3.6,0-6.5-2.9-6.5-6.5c0-3.6,2.9-6.5,6.5-6.5c1.1,0,2.2,0.3,3.1,0.8l10.7-10.7c-0.2-0.4-0.4-0.9-0.5-1.4h-7
		c-0.8,2.7-3.2,4.8-6.2,4.8c-3.6,0-6.5-2.9-6.5-6.5s2.9-6.5,6.5-6.5c3,0,5.5,2,6.2,4.8h7c0.6-2.2,2.3-3.9,4.5-4.5v-7
		c-2.2-0.6-3.9-2.3-4.5-4.5h-7c-0.8,2.7-3.2,4.8-6.2,4.8c-3.6,0-6.5-2.9-6.5-6.5s2.9-6.5,6.5-6.5c3,0,5.5,2,6.2,4.8h7
		c0.8-2.7,3.2-4.8,6.2-4.8c3,0,5.5,2,6.2,4.8h7c0.8-2.7,3.2-4.8,6.2-4.8C434.2,162.8,437.1,165.7,437.1,169.3z M394.8,169.3
		c0-1.7-1.4-3.1-3.1-3.1s-3.1,1.4-3.1,3.1c0,1.7,1.4,3.1,3.1,3.1S394.8,171,394.8,169.3z M394.8,188.7c0-1.7-1.4-3.1-3.1-3.1
		s-3.1,1.4-3.1,3.1c0,1.7,1.4,3.1,3.1,3.1S394.8,190.4,394.8,188.7z M394.8,208.1c0-1.7-1.4-3.1-3.1-3.1s-3.1,1.4-3.1,3.1
		c0,1.7,1.4,3.1,3.1,3.1S394.8,209.8,394.8,208.1z M411.2,185.7c-1.7,0-3.1,1.4-3.1,3.1c0,1.7,1.4,3.1,3.1,3.1s3.1-1.4,3.1-3.1
		C414.3,187,412.9,185.7,411.2,185.7z M414.3,169.3c0-1.7-1.4-3.1-3.1-3.1s-3.1,1.4-3.1,3.1c0,1.7,1.4,3.1,3.1,3.1
		S414.3,171,414.3,169.3z M433.7,169.3c0-1.7-1.4-3.1-3.1-3.1s-3.1,1.4-3.1,3.1c0,1.7,1.4,3.1,3.1,3.1S433.7,171,433.7,169.3z
		 M378.8,266.5c0,3.6-2.9,6.5-6.5,6.5c-1.2,0-2.3-0.4-3.3-0.9l-10.6,10.6c0.6,1,0.9,2.1,0.9,3.3c0,3.6-2.9,6.5-6.5,6.5
		c-3.6,0-6.5-2.9-6.5-6.5c0-3.6,2.9-6.5,6.5-6.5c1.1,0,2.2,0.3,3.1,0.8l10.7-10.7c-0.5-0.9-0.8-2-0.8-3.1c0-3.6,2.9-6.5,6.5-6.5
		C375.9,260,378.8,262.9,378.8,266.5z M356,285.9c0-1.7-1.4-3.1-3.1-3.1s-3.1,1.4-3.1,3.1c0,1.7,1.4,3.1,3.1,3.1
		S356,287.6,356,285.9z M375.4,266.5c0-1.7-1.4-3.1-3.1-3.1c-1.7,0-3.1,1.4-3.1,3.1c0,1.7,1.4,3.1,3.1,3.1
		C374,269.5,375.4,268.1,375.4,266.5z M437.1,130.4c0,3.6-2.9,6.5-6.5,6.5c-1.2,0-2.3-0.4-3.3-0.9l-10.6,10.6c0.6,1,0.9,2.1,0.9,3.3
		c0,3.6-2.9,6.5-6.5,6.5c-3.6,0-6.5-2.9-6.5-6.5c0-3.6,2.9-6.5,6.5-6.5c1.1,0,2.2,0.3,3.1,0.8l10.7-10.7c-0.5-0.9-0.8-2-0.8-3.1
		c0-1.1,0.3-2.2,0.8-3.1l-10.7-10.7c-0.9,0.5-2,0.8-3.1,0.8c-3.6,0-6.5-2.9-6.5-6.5c0-3.6,2.9-6.5,6.5-6.5c3.6,0,6.5,2.9,6.5,6.5
		c0,1.2-0.4,2.3-0.9,3.3l10.6,10.6c1-0.6,2.1-0.9,3.3-0.9C434.2,123.9,437.1,126.8,437.1,130.4z M411.2,114c1.7,0,3.1-1.4,3.1-3.1
		c0-1.7-1.4-3.1-3.1-3.1s-3.1,1.4-3.1,3.1C408.2,112.6,409.5,114,411.2,114z M414.3,149.8c0-1.7-1.4-3.1-3.1-3.1s-3.1,1.4-3.1,3.1
		c0,1.7,1.4,3.1,3.1,3.1S414.3,151.5,414.3,149.8z M433.7,130.4c0-1.7-1.4-3.1-3.1-3.1s-3.1,1.4-3.1,3.1c0,1.7,1.4,3.1,3.1,3.1
		S433.7,132.1,433.7,130.4z M398.3,266.5c0,3.6-2.9,6.5-6.5,6.5c-3.6,0-6.5-2.9-6.5-6.5c0-1.1,0.3-2.2,0.8-3.1l-10.7-10.7
		c-0.9,0.5-2,0.8-3.1,0.8c-3.6,0-6.5-2.9-6.5-6.5c0-3.6,2.9-6.5,6.5-6.5c3.6,0,6.5,2.9,6.5,6.5c0,1.2-0.4,2.3-0.9,3.3l10.6,10.6
		c1-0.6,2.1-0.9,3.3-0.9C395.4,260,398.3,262.9,398.3,266.5z M372.4,250.1c1.7,0,3.1-1.4,3.1-3.1s-1.4-3.1-3.1-3.1
		c-1.7,0-3.1,1.4-3.1,3.1S370.7,250.1,372.4,250.1z M394.8,266.5c0-1.7-1.4-3.1-3.1-3.1s-3.1,1.4-3.1,3.1c0,1.7,1.4,3.1,3.1,3.1
		S394.8,268.1,394.8,266.5z M335.2,233.8v7c2.7,0.8,4.8,3.2,4.8,6.2c0,3.6-2.9,6.5-6.5,6.5c-1.2,0-2.3-0.4-3.3-0.9l-10.6,10.6
		c0.6,1,0.9,2.1,0.9,3.3c0,3.6-2.9,6.5-6.5,6.5c-3.6,0-6.5-2.9-6.5-6.5s2.9-6.5,6.5-6.5c1.1,0,2.2,0.3,3.1,0.8l10.7-10.7
		c-0.5-0.9-0.8-2-0.8-3.1c0-3,2-5.5,4.8-6.2v-7c-2.7-0.8-4.8-3.2-4.8-6.2c0-3.6,2.9-6.5,6.5-6.5c1.1,0,2.2,0.3,3.1,0.8l10.7-10.7
		c-0.5-0.9-0.8-2-0.8-3.1c0-3.6,2.9-6.5,6.5-6.5c3.6,0,6.5,2.9,6.5,6.5c0,3.6-2.9,6.5-6.5,6.5c-1.2,0-2.3-0.4-3.3-0.9L339,224.3
		c0.6,1,0.9,2.1,0.9,3.3C340,230.6,337.9,233,335.2,233.8z M349.9,208.1c0,1.7,1.4,3.1,3.1,3.1s3.1-1.4,3.1-3.1
		c0-1.7-1.4-3.1-3.1-3.1S349.9,206.5,349.9,208.1z M333.5,230.6c1.7,0,3.1-1.4,3.1-3.1c0-1.7-1.4-3.1-3.1-3.1
		c-1.7,0-3.1,1.4-3.1,3.1C330.4,229.3,331.8,230.6,333.5,230.6z M317.1,266.5c0-1.7-1.4-3.1-3.1-3.1s-3.1,1.4-3.1,3.1
		c0,1.7,1.4,3.1,3.1,3.1S317.1,268.1,317.1,266.5z M333.5,244c-1.7,0-3.1,1.4-3.1,3.1s1.4,3.1,3.1,3.1c1.7,0,3.1-1.4,3.1-3.1
		S335.2,244,333.5,244z"/>
</g>
</svg>
