<?xml version="1.0" encoding="utf-8"?>
<!-- Generator: Adobe Illustrator 27.8.1, SVG Export Plug-In . SVG Version: 6.00 Build 0)  -->
<svg version="1.1" id="Ebene_1" xmlns="http://www.w3.org/2000/svg" xmlns:xlink="http://www.w3.org/1999/xlink" x="0px" y="0px"
	 viewBox="0 0 841.9 595.3" style="enable-background:new 0 0 841.9 595.3;" xml:space="preserve">
<style type="text/css">
	.st0{fill:#FFFFFF;}
</style>
<g>
	<g>
		<path class="st0" d="M538.4,249.3h-10.1v-29.3c0-3.6-0.7-6.3-2.1-8.1c-1.4-1.8-3.5-2.7-6.4-2.7c-3.9,0-6.7,1.3-8.6,3.8
			c-1.8,2.5-2.7,6.7-2.7,12.6v23.6h-10.1v-47.4h7.9l1.4,6.2h0.5c1.3-2.3,3.2-4,5.7-5.2c2.5-1.2,5.3-1.8,8.3-1.8
			c7.3,0,12.1,2.5,14.5,7.5h0.7c1.4-2.3,3.4-4.2,5.9-5.5c2.5-1.3,5.5-2,8.8-2c5.7,0,9.8,1.4,12.4,4.3c2.6,2.9,3.9,7.2,3.9,13.1v30.9
			h-10.1v-29.3c0-3.6-0.7-6.3-2.1-8.1c-1.4-1.8-3.5-2.7-6.5-2.7c-3.9,0-6.8,1.2-8.6,3.7c-1.8,2.4-2.7,6.2-2.7,11.3V249.3z"/>
		<path class="st0" d="M603.1,250.2c-7.4,0-13.1-2.2-17.3-6.5c-4.2-4.3-6.2-10.2-6.2-17.8c0-7.7,1.9-13.8,5.8-18.3
			c3.9-4.4,9.2-6.6,15.9-6.6c6.3,0,11.2,1.9,14.8,5.7s5.4,9,5.4,15.7v5.4h-31.6c0.1,4.6,1.4,8.1,3.7,10.6c2.3,2.5,5.6,3.7,9.9,3.7
			c2.8,0,5.4-0.3,7.8-0.8c2.4-0.5,5-1.4,7.8-2.6v8.2c-2.5,1.2-4.9,2-7.5,2.5C609.2,250,606.3,250.2,603.1,250.2z M601.2,208.7
			c-3.2,0-5.8,1-7.7,3s-3.1,5-3.5,8.9h21.5c-0.1-3.9-1-6.9-2.8-8.9C607,209.7,604.4,208.7,601.2,208.7z"/>
		<path class="st0" d="M650.7,242c2.5,0,4.9-0.4,7.4-1.2v7.6c-1.1,0.5-2.6,0.9-4.3,1.2c-1.8,0.3-3.6,0.5-5.5,0.5
			c-9.6,0-14.3-5-14.3-15.1v-25.6h-6.5v-4.5l6.9-3.7l3.4-10h6.2v10.6h13.5v7.6h-13.5v25.4c0,2.4,0.6,4.2,1.8,5.4
			S648.7,242,650.7,242z"/>
		<path class="st0" d="M697.2,249.3l-2-6.6h-0.3c-2.3,2.9-4.6,4.9-6.9,5.9c-2.3,1-5.3,1.6-8.9,1.6c-4.7,0-8.3-1.3-10.9-3.8
			c-2.6-2.5-3.9-6.1-3.9-10.7c0-4.9,1.8-8.6,5.4-11.1s9.2-3.8,16.6-4.1l8.2-0.3v-2.5c0-3-0.7-5.3-2.1-6.8c-1.4-1.5-3.6-2.3-6.6-2.3
			c-2.4,0-4.8,0.4-7,1.1c-2.2,0.7-4.4,1.6-6.4,2.5l-3.3-7.2c2.6-1.3,5.4-2.4,8.5-3.1c3.1-0.7,5.9-1.1,8.7-1.1c6,0,10.6,1.3,13.7,3.9
			c3.1,2.6,4.6,6.8,4.6,12.4v32H697.2z M682.2,242.5c3.7,0,6.6-1,8.8-3.1c2.2-2,3.3-4.9,3.3-8.6v-4.1l-6.1,0.3
			c-4.7,0.2-8.2,1-10.4,2.4c-2.2,1.4-3.2,3.6-3.2,6.5c0,2.1,0.6,3.8,1.9,4.9C677.8,241.9,679.7,242.5,682.2,242.5z"/>
		<path class="st0" d="M484.2,327.1c-5.9,0-10.5-2.1-13.9-6.4s-5-10.3-5-18.1c0-7.8,1.7-13.8,5-18.2c3.4-4.3,8-6.5,14-6.5
			c6.2,0,11,2.3,14.2,6.9h0.5c-0.5-3.4-0.7-6.1-0.7-8.1v-17.3h10.1v66.7h-7.9l-1.8-6.2h-0.5C495.2,324.7,490.5,327.1,484.2,327.1z
			 M486.9,318.9c4.1,0,7.2-1.2,9.1-3.5c1.9-2.3,2.9-6.1,2.9-11.3v-1.4c0-6-1-10.2-2.9-12.7s-5-3.8-9.1-3.8c-3.5,0-6.3,1.4-8.2,4.3
			c-1.9,2.9-2.9,7-2.9,12.3c0,5.3,0.9,9.3,2.8,12C480.4,317.5,483.2,318.9,486.9,318.9z"/>
		<path class="st0" d="M553.4,326.2l-2-6.6H551c-2.3,2.9-4.6,4.9-6.9,5.9c-2.3,1-5.3,1.6-8.9,1.6c-4.7,0-8.3-1.3-10.9-3.8
			s-3.9-6.1-3.9-10.7c0-4.9,1.8-8.6,5.4-11.1c3.6-2.5,9.2-3.8,16.6-4.1l8.2-0.3v-2.5c0-3-0.7-5.3-2.1-6.8c-1.4-1.5-3.6-2.3-6.6-2.3
			c-2.4,0-4.8,0.4-7,1.1s-4.4,1.6-6.4,2.5l-3.3-7.2c2.6-1.3,5.4-2.4,8.5-3.1c3.1-0.7,5.9-1.1,8.7-1.1c6,0,10.6,1.3,13.7,3.9
			c3.1,2.6,4.6,6.8,4.6,12.4v32H553.4z M538.4,319.3c3.7,0,6.6-1,8.8-3.1c2.2-2,3.3-4.9,3.3-8.6v-4.1l-6.1,0.3
			c-4.7,0.2-8.2,1-10.4,2.4c-2.2,1.4-3.2,3.6-3.2,6.5c0,2.1,0.6,3.8,1.9,4.9C534,318.8,535.9,319.3,538.4,319.3z"/>
		<path class="st0" d="M594,318.9c2.5,0,4.9-0.4,7.4-1.2v7.6c-1.1,0.5-2.6,0.9-4.3,1.2s-3.6,0.5-5.5,0.5c-9.6,0-14.3-5-14.3-15.1
			v-25.6h-6.5v-4.5l6.9-3.7l3.4-10h6.2v10.6h13.5v7.6h-13.5v25.4c0,2.4,0.6,4.2,1.8,5.4C590.4,318.3,592,318.9,594,318.9z"/>
		<path class="st0" d="M632.6,327.1c-7.4,0-13.1-2.2-17.3-6.5s-6.2-10.2-6.2-17.8c0-7.7,1.9-13.8,5.8-18.3s9.2-6.6,15.9-6.6
			c6.3,0,11.2,1.9,14.8,5.7c3.6,3.8,5.4,9,5.4,15.7v5.4h-31.6c0.1,4.6,1.4,8.1,3.7,10.6c2.3,2.5,5.6,3.7,9.9,3.7
			c2.8,0,5.4-0.3,7.8-0.8s5-1.4,7.8-2.6v8.2c-2.5,1.2-4.9,2-7.5,2.5C638.7,326.8,635.9,327.1,632.6,327.1z M630.8,285.5
			c-3.2,0-5.8,1-7.7,3c-1.9,2-3.1,5-3.5,8.9h21.5c-0.1-3.9-1-6.9-2.8-8.9C636.5,286.5,634,285.5,630.8,285.5z"/>
		<path class="st0" d="M704.4,326.2h-10.1V297c0-3.7-0.7-6.4-2.2-8.2c-1.5-1.8-3.8-2.7-7-2.7c-4.3,0-7.4,1.3-9.4,3.8s-3,6.7-3,12.7
			v23.6h-10.1v-47.4h7.9l1.4,6.2h0.5c1.4-2.3,3.5-4,6.1-5.2c2.6-1.2,5.5-1.8,8.8-1.8c11.4,0,17.1,5.8,17.1,17.4V326.2z"/>
		<path class="st0" d="M541.6,399.7c0-2.8,1.1-4.2,3.4-4.2c2.3,0,3.5,1.4,3.5,4.2s-1.2,4.2-3.5,4.2
			C542.7,403.9,541.6,402.5,541.6,399.7z"/>
		<path class="st0" d="M595.8,403.1v-30.2c0-4.7-1-8.1-3-10.2s-5-3.2-9.2-3.2c-5.6,0-9.7,1.4-12.2,4.2c-2.6,2.8-3.9,7.4-3.9,13.7
			v25.7h-4.2v-46.6h3.6l0.8,6.4h0.3c3-4.9,8.4-7.3,16.2-7.3c10.6,0,15.9,5.7,15.9,17v30.5H595.8z"/>
		<path class="st0" d="M633.5,355.5c2,0,4.1,0.2,6.3,0.6l-0.8,4.1c-1.9-0.5-4-0.7-6-0.7c-4,0-7.2,1.7-9.8,5.1
			c-2.5,3.4-3.8,7.6-3.8,12.8v25.7h-4.2v-46.6h3.6l0.4,8.4h0.3c1.9-3.4,4-5.8,6.1-7.2S630.4,355.5,633.5,355.5z"/>
		<path class="st0" d="M687.3,403.1l-10.2-31.2c-0.7-2.1-1.5-5.2-2.5-9.3h-0.3l-0.9,3.2l-1.9,6.2l-10.4,31.1h-4.2l-13.3-46.6h4.5
			l7.5,27c1.7,6.7,2.9,11.6,3.4,14.8h0.3c1.7-6.7,2.9-11.1,3.7-13.3l9.6-28.4h3.9l9.1,28.4c2.1,6.7,3.3,11.2,3.8,13.3h0.3
			c0.2-1.9,1.4-6.8,3.4-14.9l7.1-26.8h4.3l-12.7,46.6H687.3z"/>
	</g>
	<path class="st0" d="M137.5,236.9c0-4.5,3.6-8.1,8.1-8.1c4.5,0,8.1,3.6,8.1,8.1c0,4.5-3.6,8.1-8.1,8.1
		C141.1,245,137.5,241.4,137.5,236.9z M145.6,342.2c4.5,0,8.1-3.6,8.1-8.1c0-4.5-3.6-8.1-8.1-8.1c-4.5,0-8.1,3.6-8.1,8.1
		C137.5,338.6,141.1,342.2,145.6,342.2z M145.6,366.5c4.5,0,8.1-3.6,8.1-8.1c0-4.5-3.6-8.1-8.1-8.1c-4.5,0-8.1,3.6-8.1,8.1
		C137.5,362.9,141.1,366.5,145.6,366.5z M161.8,236.9c0-4.5,3.6-8.1,8.1-8.1c4.5,0,8.1,3.6,8.1,8.1c0,1.5-0.4,2.9-1.2,4.1l13.2,13.2
		c1.2-0.7,2.6-1.2,4.1-1.2c4.5,0,8.1,3.6,8.1,8.1c0,4.5-3.6,8.1-8.1,8.1c-4.5,0-8.1-3.6-8.1-8.1c0-1.4,0.4-2.7,1-3.8L173.7,244
		c-1.1,0.6-2.4,1-3.8,1C165.4,245,161.8,241.4,161.8,236.9z M190.4,261.2c0,2.1,1.7,3.8,3.8,3.8s3.8-1.7,3.8-3.8
		c0-2.1-1.7-3.8-3.8-3.8S190.4,259.1,190.4,261.2z M166.1,236.9c0,2.1,1.7,3.8,3.8,3.8c2.1,0,3.8-1.7,3.8-3.8c0-2.1-1.7-3.8-3.8-3.8
		C167.8,233.1,166.1,234.8,166.1,236.9z M169.9,269.3c4.5,0,8.1-3.6,8.1-8.1c0-4.5-3.6-8.1-8.1-8.1c-4.5,0-8.1,3.6-8.1,8.1
		C161.8,265.7,165.4,269.3,169.9,269.3z M169.9,317.9c4.5,0,8.1-3.6,8.1-8.1c0-4.5-3.6-8.1-8.1-8.1c-4.5,0-8.1,3.6-8.1,8.1
		C161.8,314.3,165.4,317.9,169.9,317.9z M169.9,374.6c-4.5,0-8.1,3.6-8.1,8.1c0,4.5,3.6,8.1,8.1,8.1c4.5,0,8.1-3.6,8.1-8.1
		C178,378.2,174.3,374.6,169.9,374.6z M194.2,245c4.5,0,8.1-3.6,8.1-8.1c0-4.5-3.6-8.1-8.1-8.1c-4.5,0-8.1,3.6-8.1,8.1
		C186.1,241.4,189.7,245,194.2,245z M194.2,277.4c-4.5,0-8.1,3.6-8.1,8.1c0,4.5,3.6,8.1,8.1,8.1c4.5,0,8.1-3.6,8.1-8.1
		C202.3,281,198.6,277.4,194.2,277.4z M202.3,334.1c0,4.5-3.6,8.1-8.1,8.1c-4.5,0-8.1-3.6-8.1-8.1s3.6-8.1,8.1-8.1
		C198.6,326,202.3,329.6,202.3,334.1z M198,334.1c0-2.1-1.7-3.8-3.8-3.8s-3.8,1.7-3.8,3.8s1.7,3.8,3.8,3.8S198,336.2,198,334.1z
		 M194.2,350.3c-4.5,0-8.1,3.6-8.1,8.1c0,4.5,3.6,8.1,8.1,8.1c4.5,0,8.1-3.6,8.1-8.1C202.3,353.9,198.6,350.3,194.2,350.3z
		 M194.2,374.6c-4.5,0-8.1,3.6-8.1,8.1c0,4.5,3.6,8.1,8.1,8.1c4.5,0,8.1-3.6,8.1-8.1C202.3,378.2,198.6,374.6,194.2,374.6z
		 M218.5,220.7c4.5,0,8.1-3.6,8.1-8.1c0-4.5-3.6-8.1-8.1-8.1c-4.5,0-8.1,3.6-8.1,8.1C210.4,217.1,214,220.7,218.5,220.7z M218.5,245
		c4.5,0,8.1-3.6,8.1-8.1c0-4.5-3.6-8.1-8.1-8.1c-4.5,0-8.1,3.6-8.1,8.1C210.4,241.4,214,245,218.5,245z M218.5,269.3
		c4.5,0,8.1-3.6,8.1-8.1c0-4.5-3.6-8.1-8.1-8.1c-4.5,0-8.1,3.6-8.1,8.1C210.4,265.7,214,269.3,218.5,269.3z M216.3,302v-8.7
		c-3.4-0.9-6-4-6-7.8c0-4.5,3.6-8.1,8.1-8.1c4.5,0,8.1,3.6,8.1,8.1c0,3.7-2.5,6.8-6,7.8v8.7c3.4,0.9,6,4,6,7.8
		c0,4.5-3.6,8.1-8.1,8.1c-4.5,0-8.1-3.6-8.1-8.1C210.4,306.1,212.9,303,216.3,302z M218.5,306c-2.1,0-3.8,1.7-3.8,3.8
		s1.7,3.8,3.8,3.8c2.1,0,3.8-1.7,3.8-3.8S220.6,306,218.5,306z M218.5,289.3c2.1,0,3.8-1.7,3.8-3.8c0-2.1-1.7-3.8-3.8-3.8
		c-2.1,0-3.8,1.7-3.8,3.8C214.7,287.6,216.4,289.3,218.5,289.3z M218.5,342.2c4.5,0,8.1-3.6,8.1-8.1c0-4.5-3.6-8.1-8.1-8.1
		c-4.5,0-8.1,3.6-8.1,8.1C210.4,338.6,214,342.2,218.5,342.2z M242.8,196.4c4.5,0,8.1-3.6,8.1-8.1c0-4.5-3.6-8.1-8.1-8.1
		c-4.5,0-8.1,3.6-8.1,8.1C234.7,192.8,238.3,196.4,242.8,196.4z M242.8,220.7c4.5,0,8.1-3.6,8.1-8.1c0-4.5-3.6-8.1-8.1-8.1
		c-4.5,0-8.1,3.6-8.1,8.1C234.7,217.1,238.3,220.7,242.8,220.7z M242.8,326c-4.5,0-8.1,3.6-8.1,8.1c0,4.5,3.6,8.1,8.1,8.1
		c4.5,0,8.1-3.6,8.1-8.1C250.9,329.6,247.2,326,242.8,326z M250.9,358.4c0,4.5-3.6,8.1-8.1,8.1c-4.5,0-8.1-3.6-8.1-8.1
		c0-4.5,3.6-8.1,8.1-8.1C247.2,350.3,250.9,353.9,250.9,358.4z M246.6,358.4c0-2.1-1.7-3.8-3.8-3.8s-3.8,1.7-3.8,3.8
		c0,2.1,1.7,3.8,3.8,3.8S246.6,360.5,246.6,358.4z M267.1,220.7c4.5,0,8.1-3.6,8.1-8.1c0-4.5-3.6-8.1-8.1-8.1
		c-4.5,0-8.1,3.6-8.1,8.1C259,217.1,262.6,220.7,267.1,220.7z M275.2,309.8c0,4.5-3.6,8.1-8.1,8.1c-4.5,0-8.1-3.6-8.1-8.1
		c0-4.5,3.6-8.1,8.1-8.1C271.5,301.7,275.2,305.3,275.2,309.8z M270.9,309.8c0-2.1-1.7-3.8-3.8-3.8s-3.8,1.7-3.8,3.8
		s1.7,3.8,3.8,3.8S270.9,311.9,270.9,309.8z M267.1,326c-4.5,0-8.1,3.6-8.1,8.1c0,4.5,3.6,8.1,8.1,8.1c4.5,0,8.1-3.6,8.1-8.1
		C275.2,329.6,271.5,326,267.1,326z M267.1,350.3c-4.5,0-8.1,3.6-8.1,8.1c0,4.5,3.6,8.1,8.1,8.1c4.5,0,8.1-3.6,8.1-8.1
		C275.2,353.9,271.5,350.3,267.1,350.3z M267.1,374.6c-4.5,0-8.1,3.6-8.1,8.1c0,4.5,3.6,8.1,8.1,8.1c4.5,0,8.1-3.6,8.1-8.1
		C275.2,378.2,271.5,374.6,267.1,374.6z M291.4,155.9c-4.5,0-8.1,3.6-8.1,8.1c0,4.5,3.6,8.1,8.1,8.1c4.5,0,8.1-3.6,8.1-8.1
		C299.5,159.5,295.8,155.9,291.4,155.9z M291.4,180.2c-4.5,0-8.1,3.6-8.1,8.1c0,4.5,3.6,8.1,8.1,8.1c4.5,0,8.1-3.6,8.1-8.1
		C299.5,183.8,295.8,180.2,291.4,180.2z M291.4,228.8c-4.5,0-8.1,3.6-8.1,8.1c0,4.5,3.6,8.1,8.1,8.1c4.5,0,8.1-3.6,8.1-8.1
		C299.5,232.4,295.8,228.8,291.4,228.8z M291.4,277.4c-4.5,0-8.1,3.6-8.1,8.1c0,4.5,3.6,8.1,8.1,8.1c4.5,0,8.1-3.6,8.1-8.1
		C299.5,281,295.8,277.4,291.4,277.4z M291.4,301.7c-4.5,0-8.1,3.6-8.1,8.1c0,4.5,3.6,8.1,8.1,8.1c4.5,0,8.1-3.6,8.1-8.1
		C299.5,305.3,295.8,301.7,291.4,301.7z M291.4,326c-4.5,0-8.1,3.6-8.1,8.1c0,4.5,3.6,8.1,8.1,8.1c4.5,0,8.1-3.6,8.1-8.1
		C299.5,329.6,295.8,326,291.4,326z M291.4,350.3c-4.5,0-8.1,3.6-8.1,8.1c0,4.5,3.6,8.1,8.1,8.1c4.5,0,8.1-3.6,8.1-8.1
		C299.5,353.9,295.8,350.3,291.4,350.3z M315.7,204.5c-4.5,0-8.1,3.6-8.1,8.1c0,4.5,3.6,8.1,8.1,8.1c4.5,0,8.1-3.6,8.1-8.1
		C323.8,208.1,320.1,204.5,315.7,204.5z M315.7,253.1c-4.5,0-8.1,3.6-8.1,8.1c0,4.5,3.6,8.1,8.1,8.1c4.5,0,8.1-3.6,8.1-8.1
		C323.8,256.7,320.1,253.1,315.7,253.1z M315.7,277.4c-4.5,0-8.1,3.6-8.1,8.1c0,4.5,3.6,8.1,8.1,8.1c4.5,0,8.1-3.6,8.1-8.1
		C323.8,281,320.1,277.4,315.7,277.4z M315.7,301.7c-4.5,0-8.1,3.6-8.1,8.1c0,4.5,3.6,8.1,8.1,8.1c4.5,0,8.1-3.6,8.1-8.1
		C323.8,305.3,320.1,301.7,315.7,301.7z M315.7,326c-4.5,0-8.1,3.6-8.1,8.1c0,4.5,3.6,8.1,8.1,8.1c4.5,0,8.1-3.6,8.1-8.1
		C323.8,329.6,320.1,326,315.7,326z M323.8,358.4c0,4.5-3.6,8.1-8.1,8.1c-4.5,0-8.1-3.6-8.1-8.1c0-4.5,3.6-8.1,8.1-8.1
		C320.1,350.3,323.8,353.9,323.8,358.4z M319.5,358.4c0-2.1-1.7-3.8-3.8-3.8s-3.8,1.7-3.8,3.8c0,2.1,1.7,3.8,3.8,3.8
		S319.5,360.5,319.5,358.4z M315.7,374.6c-4.5,0-8.1,3.6-8.1,8.1c0,4.5,3.6,8.1,8.1,8.1c4.5,0,8.1-3.6,8.1-8.1
		C323.8,378.2,320.1,374.6,315.7,374.6z M340,172.1c4.5,0,8.1-3.6,8.1-8.1c0-4.5-3.6-8.1-8.1-8.1c-4.5,0-8.1,3.6-8.1,8.1
		C331.9,168.5,335.5,172.1,340,172.1z M340,220.7c4.5,0,8.1-3.6,8.1-8.1c0-4.5-3.6-8.1-8.1-8.1c-4.5,0-8.1,3.6-8.1,8.1
		C331.9,217.1,335.5,220.7,340,220.7z M340,253.1c-4.5,0-8.1,3.6-8.1,8.1c0,4.5,3.6,8.1,8.1,8.1c4.5,0,8.1-3.6,8.1-8.1
		C348.1,256.7,344.4,253.1,340,253.1z M340,277.4c-4.5,0-8.1,3.6-8.1,8.1c0,4.5,3.6,8.1,8.1,8.1c4.5,0,8.1-3.6,8.1-8.1
		C348.1,281,344.4,277.4,340,277.4z M348.1,309.8c0,4.5-3.6,8.1-8.1,8.1c-4.5,0-8.1-3.6-8.1-8.1c0-4.5,3.6-8.1,8.1-8.1
		C344.4,301.7,348.1,305.3,348.1,309.8z M343.8,309.8c0-2.1-1.7-3.8-3.8-3.8s-3.8,1.7-3.8,3.8s1.7,3.8,3.8,3.8
		S343.8,311.9,343.8,309.8z M340,326c-4.5,0-8.1,3.6-8.1,8.1c0,4.5,3.6,8.1,8.1,8.1c4.5,0,8.1-3.6,8.1-8.1
		C348.1,329.6,344.4,326,340,326z M340,350.3c-4.5,0-8.1,3.6-8.1,8.1c0,4.5,3.6,8.1,8.1,8.1c4.5,0,8.1-3.6,8.1-8.1
		C348.1,353.9,344.4,350.3,340,350.3z M364.3,172.1c4.5,0,8.1-3.6,8.1-8.1c0-4.5-3.6-8.1-8.1-8.1c-4.5,0-8.1,3.6-8.1,8.1
		C356.2,168.5,359.8,172.1,364.3,172.1z M364.3,196.4c4.5,0,8.1-3.6,8.1-8.1c0-4.5-3.6-8.1-8.1-8.1c-4.5,0-8.1,3.6-8.1,8.1
		C356.2,192.8,359.8,196.4,364.3,196.4z M356.2,212.6c0-4.5,3.6-8.1,8.1-8.1c4.5,0,8.1,3.6,8.1,8.1c0,4.5-3.6,8.1-8.1,8.1
		C359.8,220.7,356.2,217.1,356.2,212.6z M360.4,212.6c0,2.1,1.7,3.8,3.8,3.8s3.8-1.7,3.8-3.8c0-2.1-1.7-3.8-3.8-3.8
		S360.4,210.5,360.4,212.6z M364.3,245c4.5,0,8.1-3.6,8.1-8.1c0-4.5-3.6-8.1-8.1-8.1c-4.5,0-8.1,3.6-8.1,8.1
		C356.2,241.4,359.8,245,364.3,245z M364.3,277.4c-4.5,0-8.1,3.6-8.1,8.1c0,4.5,3.6,8.1,8.1,8.1c4.5,0,8.1-3.6,8.1-8.1
		C372.4,281,368.7,277.4,364.3,277.4z M364.3,301.7c-4.5,0-8.1,3.6-8.1,8.1c0,4.5,3.6,8.1,8.1,8.1c4.5,0,8.1-3.6,8.1-8.1
		C372.4,305.3,368.7,301.7,364.3,301.7z M364.3,326c-4.5,0-8.1,3.6-8.1,8.1c0,4.5,3.6,8.1,8.1,8.1c4.5,0,8.1-3.6,8.1-8.1
		C372.4,329.6,368.7,326,364.3,326z M388.5,155.9c-4.5,0-8.1,3.6-8.1,8.1c0,4.5,3.6,8.1,8.1,8.1c4.5,0,8.1-3.6,8.1-8.1
		C396.6,159.5,393,155.9,388.5,155.9z M388.5,180.2c-4.5,0-8.1,3.6-8.1,8.1c0,4.5,3.6,8.1,8.1,8.1c4.5,0,8.1-3.6,8.1-8.1
		C396.6,183.8,393,180.2,388.5,180.2z M390.7,220.4v8.7c3.4,0.9,6,4,6,7.8c0,4.5-3.6,8.1-8.1,8.1c-1.5,0-2.9-0.4-4.1-1.2l-13.2,13.2
		c0.7,1.2,1.2,2.6,1.2,4.1c0,4.5-3.6,8.1-8.1,8.1c-4.5,0-8.1-3.6-8.1-8.1c0-1.4,0.4-2.7,1-3.8L343.8,244c-1.1,0.6-2.4,1-3.8,1
		c-4.5,0-8.1-3.6-8.1-8.1c0-4.5,3.6-8.1,8.1-8.1c4.5,0,8.1,3.6,8.1,8.1c0,1.5-0.4,2.9-1.2,4.1l13.2,13.2c1.2-0.7,2.6-1.2,4.1-1.2
		c1.4,0,2.7,0.4,3.8,1l13.4-13.4c-0.6-1.1-1-2.4-1-3.8c0-3.7,2.5-6.8,6-7.8v-8.7c-3.4-0.9-6-4-6-7.8c0-4.5,3.6-8.1,8.1-8.1
		c4.5,0,8.1,3.6,8.1,8.1C396.6,216.3,394.1,219.4,390.7,220.4z M388.5,216.4c2.1,0,3.8-1.7,3.8-3.8c0-2.1-1.7-3.8-3.8-3.8
		s-3.8,1.7-3.8,3.8C384.7,214.7,386.4,216.4,388.5,216.4z M340,240.7c2.1,0,3.8-1.7,3.8-3.8c0-2.1-1.7-3.8-3.8-3.8s-3.8,1.7-3.8,3.8
		C336.1,239,337.9,240.7,340,240.7z M368.1,261.2c0-2.1-1.7-3.8-3.8-3.8s-3.8,1.7-3.8,3.8c0,2.1,1.7,3.8,3.8,3.8
		S368.1,263.3,368.1,261.2z M388.5,233.1c-2.1,0-3.8,1.7-3.8,3.8c0,2.1,1.7,3.8,3.8,3.8s3.8-1.7,3.8-3.8
		C392.4,234.8,390.7,233.1,388.5,233.1z M388.5,253.1c-4.5,0-8.1,3.6-8.1,8.1c0,4.5,3.6,8.1,8.1,8.1c4.5,0,8.1-3.6,8.1-8.1
		C396.6,256.7,393,253.1,388.5,253.1z M388.5,277.4c-4.5,0-8.1,3.6-8.1,8.1c0,4.5,3.6,8.1,8.1,8.1c4.5,0,8.1-3.6,8.1-8.1
		C396.6,281,393,277.4,388.5,277.4z M412.8,245c4.5,0,8.1-3.6,8.1-8.1c0-4.5-3.6-8.1-8.1-8.1c-4.5,0-8.1,3.6-8.1,8.1
		C404.7,241.4,408.4,245,412.8,245z M420.9,261.2c0,4.5-3.6,8.1-8.1,8.1c-4.5,0-8.1-3.6-8.1-8.1c0-4.5,3.6-8.1,8.1-8.1
		C417.3,253.1,420.9,256.7,420.9,261.2z M416.7,261.2c0-2.1-1.7-3.8-3.8-3.8c-2.1,0-3.8,1.7-3.8,3.8c0,2.1,1.7,3.8,3.8,3.8
		C414.9,265,416.7,263.3,416.7,261.2z M412.8,277.4c-4.5,0-8.1,3.6-8.1,8.1c0,4.5,3.6,8.1,8.1,8.1c4.5,0,8.1-3.6,8.1-8.1
		C420.9,281,417.3,277.4,412.8,277.4z M169.9,398.9c-4.5,0-8.1,3.6-8.1,8.1c0,4.5,3.6,8.1,8.1,8.1c4.5,0,8.1-3.6,8.1-8.1
		C178,402.5,174.3,398.9,169.9,398.9z M169.9,423.2c-4.5,0-8.1,3.6-8.1,8.1c0,4.5,3.6,8.1,8.1,8.1c4.5,0,8.1-3.6,8.1-8.1
		C178,426.8,174.3,423.2,169.9,423.2z M194.2,423.2c-4.5,0-8.1,3.6-8.1,8.1c0,4.5,3.6,8.1,8.1,8.1c4.5,0,8.1-3.6,8.1-8.1
		C202.3,426.8,198.6,423.2,194.2,423.2z M218.5,398.9c-4.5,0-8.1,3.6-8.1,8.1c0,4.5,3.6,8.1,8.1,8.1c4.5,0,8.1-3.6,8.1-8.1
		C226.6,402.5,222.9,398.9,218.5,398.9z M169.9,293.6c4.5,0,8.1-3.6,8.1-8.1c0-4.5-3.6-8.1-8.1-8.1c-4.5,0-8.1,3.6-8.1,8.1
		C161.8,290,165.4,293.6,169.9,293.6z M242.8,245c4.5,0,8.1-3.6,8.1-8.1c0-4.5-3.6-8.1-8.1-8.1c-4.5,0-8.1,3.6-8.1,8.1
		C234.7,241.4,238.3,245,242.8,245z M315.7,228.8c-4.5,0-8.1,3.6-8.1,8.1c0,4.5,3.6,8.1,8.1,8.1c4.5,0,8.1-3.6,8.1-8.1
		C323.8,232.4,320.1,228.8,315.7,228.8z M299.5,261.2c0,4.5-3.6,8.1-8.1,8.1c-3.7,0-6.8-2.5-7.8-6h-8.7c-0.8,2.7-2.9,4.9-5.6,5.6
		v8.7c3.4,0.9,6,4,6,7.8c0,4.5-3.6,8.1-8.1,8.1c-1.5,0-2.9-0.4-4.1-1.2l-13.2,13.2c0.7,1.2,1.2,2.6,1.2,4.1c0,4.5-3.6,8.1-8.1,8.1
		c-4.5,0-8.1-3.6-8.1-8.1c0-4.5,3.6-8.1,8.1-8.1c1.4,0,2.7,0.4,3.8,1l13.4-13.4c-0.3-0.5-0.5-1.1-0.7-1.7h-8.7c-0.9,3.4-4,6-7.8,6
		c-4.5,0-8.1-3.6-8.1-8.1s3.6-8.1,8.1-8.1c3.7,0,6.8,2.5,7.8,6h8.7c0.8-2.7,2.9-4.9,5.6-5.6V269c-2.7-0.8-4.9-2.9-5.6-5.6h-8.7
		c-0.9,3.4-4,6-7.8,6c-4.5,0-8.1-3.6-8.1-8.1c0-4.5,3.6-8.1,8.1-8.1c3.7,0,6.8,2.5,7.8,6h8.7c0.9-3.4,4-6,7.8-6c3.7,0,6.8,2.5,7.8,6
		h8.7c0.9-3.4,4-6,7.8-6C295.8,253.1,299.5,256.7,299.5,261.2z M246.6,261.2c0-2.1-1.7-3.8-3.8-3.8s-3.8,1.7-3.8,3.8
		c0,2.1,1.7,3.8,3.8,3.8S246.6,263.3,246.6,261.2z M246.6,285.5c0-2.1-1.7-3.8-3.8-3.8s-3.8,1.7-3.8,3.8c0,2.1,1.7,3.8,3.8,3.8
		S246.6,287.6,246.6,285.5z M246.6,309.8c0-2.1-1.7-3.8-3.8-3.8s-3.8,1.7-3.8,3.8s1.7,3.8,3.8,3.8S246.6,311.9,246.6,309.8z
		 M267.1,281.7c-2.1,0-3.8,1.7-3.8,3.8c0,2.1,1.7,3.8,3.8,3.8s3.8-1.7,3.8-3.8C270.9,283.4,269.2,281.7,267.1,281.7z M270.9,261.2
		c0-2.1-1.7-3.8-3.8-3.8s-3.8,1.7-3.8,3.8c0,2.1,1.7,3.8,3.8,3.8S270.9,263.3,270.9,261.2z M295.2,261.2c0-2.1-1.7-3.8-3.8-3.8
		s-3.8,1.7-3.8,3.8c0,2.1,1.7,3.8,3.8,3.8S295.2,263.3,295.2,261.2z M226.6,382.7c0,4.5-3.6,8.1-8.1,8.1c-1.5,0-2.9-0.4-4.1-1.2
		l-13.2,13.2c0.7,1.2,1.2,2.6,1.2,4.1c0,4.5-3.6,8.1-8.1,8.1c-4.5,0-8.1-3.6-8.1-8.1c0-4.5,3.6-8.1,8.1-8.1c1.4,0,2.7,0.4,3.8,1
		l13.4-13.4c-0.6-1.1-1-2.4-1-3.8c0-4.5,3.6-8.1,8.1-8.1C222.9,374.6,226.6,378.2,226.6,382.7z M198,407c0-2.1-1.7-3.8-3.8-3.8
		s-3.8,1.7-3.8,3.8c0,2.1,1.7,3.8,3.8,3.8S198,409.1,198,407z M222.3,382.7c0-2.1-1.7-3.8-3.8-3.8c-2.1,0-3.8,1.7-3.8,3.8
		s1.7,3.8,3.8,3.8C220.6,386.5,222.3,384.8,222.3,382.7z M299.5,212.6c0,4.5-3.6,8.1-8.1,8.1c-1.5,0-2.9-0.4-4.1-1.2L274,232.8
		c0.7,1.2,1.2,2.6,1.2,4.1c0,4.5-3.6,8.1-8.1,8.1c-4.5,0-8.1-3.6-8.1-8.1c0-4.5,3.6-8.1,8.1-8.1c1.4,0,2.7,0.4,3.8,1l13.4-13.4
		c-0.6-1.1-1-2.4-1-3.8c0-1.4,0.4-2.7,1-3.8l-13.4-13.4c-1.1,0.6-2.4,1-3.8,1c-4.5,0-8.1-3.6-8.1-8.1c0-4.5,3.6-8.1,8.1-8.1
		c4.5,0,8.1,3.6,8.1,8.1c0,1.5-0.4,2.9-1.2,4.1l13.2,13.2c1.2-0.7,2.6-1.2,4.1-1.2C295.8,204.5,299.5,208.1,299.5,212.6z
		 M267.1,192.1c2.1,0,3.8-1.7,3.8-3.8c0-2.1-1.7-3.8-3.8-3.8s-3.8,1.7-3.8,3.8C263.3,190.4,265,192.1,267.1,192.1z M270.9,236.9
		c0-2.1-1.7-3.8-3.8-3.8s-3.8,1.7-3.8,3.8c0,2.1,1.7,3.8,3.8,3.8S270.9,239,270.9,236.9z M295.2,212.6c0-2.1-1.7-3.8-3.8-3.8
		s-3.8,1.7-3.8,3.8c0,2.1,1.7,3.8,3.8,3.8S295.2,214.7,295.2,212.6z M250.9,382.7c0,4.5-3.6,8.1-8.1,8.1c-4.5,0-8.1-3.6-8.1-8.1
		c0-1.4,0.4-2.7,1-3.8l-13.4-13.4c-1.1,0.6-2.4,1-3.8,1c-4.5,0-8.1-3.6-8.1-8.1c0-4.5,3.6-8.1,8.1-8.1c4.5,0,8.1,3.6,8.1,8.1
		c0,1.5-0.4,2.9-1.2,4.1l13.2,13.2c1.2-0.7,2.6-1.2,4.1-1.2C247.2,374.6,250.9,378.2,250.9,382.7z M218.5,362.2
		c2.1,0,3.8-1.7,3.8-3.8c0-2.1-1.7-3.8-3.8-3.8c-2.1,0-3.8,1.7-3.8,3.8C214.7,360.5,216.4,362.2,218.5,362.2z M246.6,382.7
		c0-2.1-1.7-3.8-3.8-3.8s-3.8,1.7-3.8,3.8s1.7,3.8,3.8,3.8S246.6,384.8,246.6,382.7z M172,341.9v8.7c3.4,0.9,6,4,6,7.8
		c0,4.5-3.6,8.1-8.1,8.1c-1.5,0-2.9-0.4-4.1-1.2l-13.2,13.2c0.7,1.2,1.2,2.6,1.2,4.1c0,4.5-3.6,8.1-8.1,8.1c-4.5,0-8.1-3.6-8.1-8.1
		s3.6-8.1,8.1-8.1c1.4,0,2.7,0.4,3.8,1l13.4-13.4c-0.6-1.1-1-2.4-1-3.8c0-3.7,2.5-6.8,6-7.8v-8.7c-3.4-0.9-6-4-6-7.8
		c0-4.5,3.6-8.1,8.1-8.1c1.4,0,2.7,0.4,3.8,1l13.4-13.4c-0.6-1.1-1-2.4-1-3.8c0-4.5,3.6-8.1,8.1-8.1c4.5,0,8.1,3.6,8.1,8.1
		c0,4.5-3.6,8.1-8.1,8.1c-1.5,0-2.9-0.4-4.1-1.2L176.8,330c0.7,1.2,1.2,2.6,1.2,4.1C178,337.8,175.4,340.9,172,341.9z M190.4,309.8
		c0,2.1,1.7,3.8,3.8,3.8s3.8-1.7,3.8-3.8s-1.7-3.8-3.8-3.8S190.4,307.7,190.4,309.8z M169.9,337.9c2.1,0,3.8-1.7,3.8-3.8
		s-1.7-3.8-3.8-3.8c-2.1,0-3.8,1.7-3.8,3.8S167.8,337.9,169.9,337.9z M149.4,382.7c0-2.1-1.7-3.8-3.8-3.8s-3.8,1.7-3.8,3.8
		s1.7,3.8,3.8,3.8S149.4,384.8,149.4,382.7z M169.9,354.6c-2.1,0-3.8,1.7-3.8,3.8c0,2.1,1.7,3.8,3.8,3.8c2.1,0,3.8-1.7,3.8-3.8
		C173.7,356.3,172,354.6,169.9,354.6z"/>
</g>
</svg>
